<svg id="visual" viewBox="0 0 900 600" width="900" height="600" xmlns="http://www.w3.org/2000/svg" xmlns:xlink="http://www.w3.org/1999/xlink" version="1.1"><rect x="0" y="0" width="900" height="600" fill="#0B111F"></rect><path d="M0 433L21.5 426.3C43 419.7 86 406.3 128.8 400.3C171.7 394.3 214.3 395.7 257.2 401.5C300 407.3 343 417.7 385.8 415.3C428.7 413 471.3 398 514.2 390.7C557 383.3 600 383.7 642.8 393.5C685.7 403.3 728.3 422.7 771.2 429.7C814 436.7 857 431.3 878.5 428.7L900 426L900 601L878.5 601C857 601 814 601 771.2 601C728.3 601 685.7 601 642.8 601C600 601 557 601 514.2 601C471.3 601 428.7 601 385.8 601C343 601 300 601 257.2 601C214.3 601 171.7 601 128.8 601C86 601 43 601 21.5 601L0 601Z" fill="#e11d48"></path><path d="M0 430L21.5 430.5C43 431 86 432 128.8 429.2C171.7 426.3 214.3 419.7 257.2 422.3C300 425 343 437 385.8 443.3C428.7 449.7 471.3 450.3 514.2 442.5C557 434.7 600 418.3 642.8 414.2C685.7 410 728.3 418 771.2 416.3C814 414.7 857 403.3 878.5 397.7L900 392L900 601L878.5 601C857 601 814 601 771.2 601C728.3 601 685.7 601 642.8 601C600 601 557 601 514.2 601C471.3 601 428.7 601 385.8 601C343 601 300 601 257.2 601C214.3 601 171.7 601 128.8 601C86 601 43 601 21.5 601L0 601Z" fill="#c41259"></path><path d="M0 472L21.5 466.3C43 460.7 86 449.3 128.8 444.2C171.7 439 214.3 440 257.2 441.7C300 443.3 343 445.7 385.8 446.8C428.7 448 471.3 448 514.2 452.5C557 457 600 466 642.8 464.3C685.7 462.7 728.3 450.3 771.2 444.8C814 439.3 857 440.7 878.5 441.3L900 442L900 601L878.5 601C857 601 814 601 771.2 601C728.3 601 685.7 601 642.8 601C600 601 557 601 514.2 601C471.3 601 428.7 601 385.8 601C343 601 300 601 257.2 601C214.3 601 171.7 601 128.8 601C86 601 43 601 21.5 601L0 601Z" fill="#a11b63"></path><path d="M0 472L21.5 474.2C43 476.3 86 480.7 128.8 480.5C171.7 480.3 214.3 475.7 257.2 476.3C300 477 343 483 385.8 485.7C428.7 488.3 471.3 487.7 514.2 485.7C557 483.7 600 480.3 642.8 474.7C685.7 469 728.3 461 771.2 464.2C814 467.3 857 481.7 878.5 488.8L900 496L900 601L878.5 601C857 601 814 601 771.2 601C728.3 601 685.7 601 642.8 601C600 601 557 601 514.2 601C471.3 601 428.7 601 385.8 601C343 601 300 601 257.2 601C214.3 601 171.7 601 128.8 601C86 601 43 601 21.5 601L0 601Z" fill="#7b2364"></path><path d="M0 499L21.5 496.8C43 494.7 86 490.3 128.8 491.5C171.7 492.7 214.3 499.3 257.2 499.7C300 500 343 494 385.8 492.7C428.7 491.3 471.3 494.7 514.2 498.8C557 503 600 508 642.8 507.3C685.7 506.7 728.3 500.3 771.2 500.3C814 500.3 857 506.7 878.5 509.8L900 513L900 601L878.5 601C857 601 814 601 771.2 601C728.3 601 685.7 601 642.8 601C600 601 557 601 514.2 601C471.3 601 428.7 601 385.8 601C343 601 300 601 257.2 601C214.3 601 171.7 601 128.8 601C86 601 43 601 21.5 601L0 601Z" fill="#56265c"></path><path d="M0 540L21.5 539.8C43 539.7 86 539.3 128.8 536C171.7 532.7 214.3 526.3 257.2 521.5C300 516.7 343 513.3 385.8 512.2C428.7 511 471.3 512 514.2 516C557 520 600 527 642.8 531.2C685.7 535.3 728.3 536.7 771.2 533.5C814 530.3 857 522.7 878.5 518.8L900 515L900 601L878.5 601C857 601 814 601 771.2 601C728.3 601 685.7 601 642.8 601C600 601 557 601 514.2 601C471.3 601 428.7 601 385.8 601C343 601 300 601 257.2 601C214.3 601 171.7 601 128.8 601C86 601 43 601 21.5 601L0 601Z" fill="#34234c"></path><path d="M0 548L21.5 549.7C43 551.3 86 554.7 128.8 556.2C171.7 557.7 214.3 557.3 257.2 552.5C300 547.7 343 538.3 385.8 536.7C428.7 535 471.3 541 514.2 541C557 541 600 535 642.8 531.5C685.7 528 728.3 527 771.2 526.8C814 526.7 857 527.3 878.5 527.7L900 528L900 601L878.5 601C857 601 814 601 771.2 601C728.3 601 685.7 601 642.8 601C600 601 557 601 514.2 601C471.3 601 428.7 601 385.8 601C343 601 300 601 257.2 601C214.3 601 171.7 601 128.8 601C86 601 43 601 21.5 601L0 601Z" fill="#1a1c37"></path><path d="M0 574L21.5 571.3C43 568.7 86 563.3 128.8 563.3C171.7 563.3 214.3 568.7 257.2 570.8C300 573 343 572 385.8 571.8C428.7 571.7 471.3 572.3 514.2 570.3C557 568.3 600 563.7 642.8 564.3C685.7 565 728.3 571 771.2 572.2C814 573.3 857 569.7 878.5 567.8L900 566L900 601L878.5 601C857 601 814 601 771.2 601C728.3 601 685.7 601 642.8 601C600 601 557 601 514.2 601C471.3 601 428.7 601 385.8 601C343 601 300 601 257.2 601C214.3 601 171.7 601 128.8 601C86 601 43 601 21.5 601L0 601Z" fill="#0b111f"></path></svg>